<?xml version="1.0" encoding="utf-8"?>
<!-- Generator: Adobe Illustrator 24.2.1, SVG Export Plug-In . SVG Version: 6.00 Build 0)  -->
<svg version="1.1" id="Layer_1" xmlns="http://www.w3.org/2000/svg" xmlns:xlink="http://www.w3.org/1999/xlink" x="0px" y="0px"
	 viewBox="0 0 1028 558" style="enable-background:new 0 0 1028 558;" xml:space="preserve">
<style type="text/css">
	.st0{display:none;}
	.st1{display:inline;}
	.st2{clip-path:url(#SVGID_2_);}
	.st3{fill:none;stroke:#000000;stroke-width:6;stroke-miterlimit:10;}
	.st4{fill:#FFFFFF;}
</style>
<g class="st0">
	<g class="st1">
		<defs>
			<rect id="SVGID_1_" x="276" y="23" width="805" height="744"/>
		</defs>
		<clipPath id="SVGID_2_">
			<use xlink:href="#SVGID_1_"  style="overflow:visible;"/>
		</clipPath>
		<g class="st2">
			
				<image style="overflow:visible;enable-background:new    ;" width="582" height="537" xlink:href="C3331D436824319F.png"  transform="matrix(1.3831 0 0 1.3831 275.9965 23.6392)">
			</image>
		</g>
	</g>
</g>
<polygon class="st3" points="831,307.9 863.7,321.7 835.5,388.6 957,439.5 985.2,372.6 1016.3,385.8 947.2,550 916.8,537.2 
	942.9,473 822.2,422.4 795.3,486.2 761.9,472.2 "/>
<polygon class="st3" points="397.2,103.1 313.4,103.1 271.5,175.7 313.4,248.3 397.2,248.3 439.1,175.7 "/>
<path class="st3" d="M659.5,481.8l-61-27.2l33.8-82.5c-69.5-32.9-136.7-49.7-202-56.9l-8-18.5l-19.4-2.3l-13,17.5
	c-24.3-1.4-65.8-1.1-70.4-0.8l-11.9-17.2l-19.5,1.6l-6.5,18.6c-0.6,0.1-1.2,0.1-1.9,0.2c-97.4,10-185.1,35.5-218.6,43.3L0,191.6
	L350.4,6.6L784,216.9l-96.5,197.2l14,5.8l55.2-111.4l56.9-36.3l214.4,91.6"/>
<circle cx="629" cy="341.5" r="22.5"/>
<circle cx="586" cy="323.8" r="22.5"/>
<circle cx="542" cy="309.1" r="22.5"/>
<ellipse transform="matrix(0.1602 -0.9871 0.9871 0.1602 122.813 741.2093)" cx="497" cy="298.4" rx="22.5" ry="22.5"/>
<circle cx="452" cy="290.8" r="22.5"/>
<circle cx="255" cy="290.1" r="22.5"/>
<circle cx="207" cy="297.4" r="22.5"/>
<circle cx="158" cy="306.8" r="22.5"/>
<circle cx="109" cy="316.5" r="22.5"/>
<circle cx="377" cy="48.8" r="22.5"/>
<circle cx="330" cy="47.2" r="22.5"/>
<circle cx="355" cy="180.5" r="22.5"/>
<circle cx="53" cy="248.2" r="22.5"/>
<ellipse transform="matrix(0.707 -0.7072 0.7072 0.707 -86.509 754.2859)" cx="867" cy="481.5" rx="22.4" ry="22.5"/>
<ellipse transform="matrix(0.707 -0.7072 0.7072 0.707 61.251 520.7525)" cx="659.1" cy="186.5" rx="22.4" ry="22.5"/>
<ellipse transform="matrix(0.707 -0.7072 0.7072 0.707 64.392 458.1536)" cx="585.1" cy="151.4" rx="22.4" ry="22.5"/>
<ellipse transform="matrix(0.707 -0.7072 0.7072 0.707 67.7285 397.8663)" cx="514" cy="117.2" rx="22.4" ry="22.5"/>
<ellipse transform="matrix(0.707 -0.7072 0.7072 0.707 72.4222 332.7948)" cx="437.8" cy="79" rx="22.4" ry="22.5"/>
<ellipse transform="matrix(0.707 -0.7072 0.7072 0.707 14.9964 207.687)" cx="258.1" cy="85.7" rx="22.4" ry="22.5"/>
<ellipse transform="matrix(0.707 -0.7072 0.7072 0.707 -33.8134 166.9296)" cx="184.5" cy="124.3" rx="22.4" ry="22.5"/>
<ellipse transform="matrix(0.707 -0.7072 0.7072 0.707 -90.9846 119.2038)" cx="98.4" cy="169.4" rx="22.4" ry="22.5"/>
<ellipse transform="matrix(0.707 -0.7072 0.7072 0.707 -97.788 332.5835)" cx="352.5" cy="284.3" rx="22.4" ry="22.5"/>
<path class="st4" d="M626.6,334.8L626.6,334.8l-5,2.4l-1-4.6l6.9-3.2h5v26.1h-5.9L626.6,334.8L626.6,334.8z"/>
<path class="st4" d="M575.8,336.2v-3.7l3.4-3c5.7-5.1,8.5-8,8.5-11.1c0-2.1-1.2-3.8-4.3-3.8c-2.2,0-4.2,1.1-5.6,2.1l-1.7-4.4
	c2-1.5,5-2.7,8.5-2.7c5.9,0,9.2,3.5,9.2,8.2c0,4.4-3.1,7.9-6.9,11.2l-2.4,2v0.1h9.9v5L575.8,336.2L575.8,336.2z"/>
<path class="st4" d="M533.9,317.1c1.1,0.6,3.6,1.6,6.1,1.6c3.2,0,4.8-1.5,4.8-3.5c0-2.6-2.6-3.8-5.3-3.8H537v-4.4h2.4
	c2,0,4.6-0.8,4.6-3c0-1.6-1.3-2.7-3.8-2.7c-2.2,0-4.4,0.9-5.5,1.6l-1.2-4.4c1.6-1,4.7-2,8.1-2c5.6,0,8.7,2.9,8.7,6.5
	c0,2.7-1.6,4.9-4.8,6v0.1c3.1,0.6,5.7,2.9,5.7,6.4c0,4.6-4.1,8-10.7,8c-3.4,0-6.2-0.9-7.8-1.8L533.9,317.1z"/>
<path class="st4" d="M497.6,310.9v-6.2h-11.6v-4l9.9-15.9h7.5V300h3.1v4.6h-3.1v6.2H497.6z M497.6,300v-5.8c0-1.6,0.1-3.2,0.2-4.9
	l-0.1,0c-0.8,1.7-1.5,3.2-2.4,4.8l-3.5,5.7l0,0.1L497.6,300L497.6,300z"/>
<path class="st4" d="M459.2,283.7h-10.1l-0.6,4c0.6-0.1,1.1-0.1,1.7-0.1c2.5,0,5,0.6,6.9,1.9c2,1.3,3.2,3.5,3.2,6.6
	c0,4.9-4.2,9.2-11.2,9.2c-3.2,0-5.8-0.7-7.3-1.5l1.1-4.6c1.2,0.6,3.5,1.3,5.9,1.3c2.5,0,5.2-1.2,5.2-4c0-2.7-2.1-4.3-7.4-4.3
	c-1.4,0-2.5,0.1-3.5,0.2l1.7-13.7h14.4L459.2,283.7L459.2,283.7z"/>
<path class="st4" d="M261.5,280.8c-0.7,0-1.4,0-2.4,0.1c-5.4,0.4-7.8,3.2-8.5,6.2h0.1c1.3-1.3,3.1-2.1,5.5-2.1
	c4.4,0,8.1,3.1,8.1,8.5c0,5.2-4,9.4-9.6,9.4c-7,0-10.4-5.2-10.4-11.4c0-4.9,1.8-9,4.6-11.6c2.6-2.4,6-3.6,10-3.9
	c1.1-0.1,1.9-0.1,2.5,0L261.5,280.8z M258.1,293.9c0-2.4-1.3-4.5-3.9-4.5c-1.6,0-3,1-3.6,2.3c-0.2,0.4-0.3,0.8-0.3,1.5
	c0.1,2.8,1.4,5.2,4.2,5.2C256.8,298.5,258.1,296.5,258.1,293.9z"/>
<path class="st4" d="M215.5,285.4v3.8l-10.8,22.3h-6.5l10.8-21v-0.1h-12v-5L215.5,285.4L215.5,285.4z"/>
<path class="st4" d="M147.4,312.4c0-3.2,1.8-5.3,4.6-6.6v-0.1c-2.5-1.3-3.8-3.4-3.8-5.7c0-4.4,4-7.3,9.2-7.3c6.1,0,8.6,3.5,8.6,6.7
	c0,2.2-1.2,4.5-3.8,5.8v0.1c2.5,1,4.8,3.1,4.8,6.5c0,4.7-4,7.9-10,7.9C150.5,319.6,147.4,315.9,147.4,312.4z M160.9,312.1
	c0-2.3-1.7-3.6-4.1-4.3c-2,0.6-3.2,2-3.2,3.9c0,1.9,1.4,3.7,3.7,3.7C159.5,315.4,160.9,314,160.9,312.1z M154.1,299.8
	c0,1.8,1.6,2.9,3.7,3.5c1.4-0.4,2.6-1.7,2.6-3.3c0-1.6-0.9-3.2-3.2-3.2C155.1,296.8,154.1,298.1,154.1,299.8z"/>
<path class="st4" d="M100.7,326.1c0.8,0.1,1.4,0.1,2.7,0c1.9-0.1,3.8-0.6,5.1-1.6c1.7-1.1,2.8-2.9,3.3-4.8l-0.1,0
	c-1.2,1.2-2.9,1.9-5.2,1.9c-4.4,0-8.1-3.1-8.1-8.1c0-5.1,4.1-9.4,9.8-9.4c6.7,0,9.9,5.1,9.9,11.2c0,5.4-1.7,9.4-4.6,12
	c-2.5,2.2-5.9,3.5-10,3.6c-1,0.1-2.1,0-2.8,0L100.7,326.1L100.7,326.1z M104.4,313c0,2.2,1.2,4.2,3.7,4.2c1.7,0,2.8-0.8,3.4-1.7
	c0.2-0.4,0.3-0.8,0.3-1.5c0-2.8-1-5.5-3.8-5.5C105.9,308.4,104.4,310.3,104.4,313z"/>
<path class="st4" d="M367.1,42.3L367.1,42.3l-4.2,2l-0.9-3.8l5.8-2.7h4.2v21.9h-5L367.1,42.3L367.1,42.3z"/>
<path class="st4" d="M392.3,48.6c0,6.7-2.7,11.4-8.3,11.4c-5.7,0-8.2-5.1-8.2-11.3c0-6.4,2.7-11.4,8.3-11.4
	C390,37.4,392.3,42.6,392.3,48.6z M380.9,48.7c0,5,1.2,7.4,3.2,7.4c2,0,3.1-2.5,3.1-7.5c0-4.8-1.1-7.4-3.1-7.4
	C382.2,41.3,380.9,43.6,380.9,48.7z"/>
<path class="st4" d="M320.1,42.2L320.1,42.2l-4.2,2l-0.9-3.8l5.8-2.7h4.2v21.9h-5L320.1,42.2L320.1,42.2z"/>
<path class="st4" d="M335.6,42.2L335.6,42.2l-4.2,2l-0.9-3.8l5.8-2.7h4.2v21.9h-5L335.6,42.2L335.6,42.2z"/>
<path class="st4" d="M345.1,174L345.1,174l-4.2,2l-0.9-3.8l5.8-2.7h4.2v21.9h-5L345.1,174L345.1,174z"/>
<path class="st4" d="M354.1,191.3v-3.1l2.8-2.5c4.8-4.3,7.1-6.8,7.2-9.3c0-1.8-1-3.2-3.6-3.2c-1.9,0-3.5,0.9-4.7,1.8l-1.4-3.7
	c1.6-1.2,4.2-2.3,7.1-2.3c5,0,7.7,2.9,7.7,6.9c0,3.7-2.6,6.6-5.8,9.4l-2,1.7v0.1h8.3v4.2L354.1,191.3L354.1,191.3z"/>
<path class="st4" d="M43.1,243.3L43.1,243.3l-4.2,2l-0.8-3.8l5.8-2.7H48v21.9h-4.9V243.3z"/>
<path class="st4" d="M53,255.6c0.9,0.5,3,1.3,5.1,1.3c2.7,0,4-1.3,4-2.9c0-2.2-2.2-3.1-4.4-3.2h-2.1v-3.7h2c1.7,0,3.9-0.7,3.9-2.5
	c0-1.3-1.1-2.3-3.2-2.3c-1.8,0-3.7,0.8-4.6,1.3l-1-3.7c1.3-0.9,3.9-1.7,6.8-1.7c4.7,0,7.3,2.5,7.3,5.5c0,2.3-1.3,4.1-4,5.1v0.1
	c2.6,0.5,4.7,2.4,4.7,5.3c0,3.9-3.4,6.7-9,6.7c-2.8,0-5.2-0.7-6.5-1.5L53,255.6z"/>
<path class="st4" d="M857.1,475L857.1,475l-4.2,2l-0.8-3.8l5.8-2.7h4.2v21.9h-5L857.1,475L857.1,475z"/>
<path class="st4" d="M875.2,492.4v-5.2h-9.7v-3.3l8.3-13.3h6.3v12.8h2.6v3.8H880v5.2L875.2,492.4L875.2,492.4z M875.2,483.3v-4.8
	c0-1.3,0.1-2.7,0.2-4.1l-0.1,0c-0.7,1.4-1.3,2.7-2,4.1l-2.9,4.8l0,0.1H875.2z"/>
<path class="st4" d="M648.7,180.7L648.7,180.7l-4.4,2l-0.9-3.9l6-2.7h4.4v22.2h-5.1V180.7z"/>
<path class="st4" d="M672.9,180.3h-8.8l-0.5,3.4c0.5-0.1,0.9-0.1,1.5-0.1c2.2,0,4.4,0.5,6,1.6c1.7,1.1,2.7,3,2.7,5.6
	c0,4.1-3.6,7.8-9.7,7.8c-2.7,0-5-0.6-6.3-1.3l1-3.9c1,0.5,3.1,1.1,5.1,1.1c2.2,0,4.5-1,4.5-3.4c0-2.3-1.9-3.7-6.4-3.7
	c-1.2,0-2.1,0.1-3,0.2l1.5-11.6h12.5V180.3z"/>
<path class="st4" d="M574.7,145.6L574.7,145.6l-4.4,2l-0.9-3.9l6-2.7h4.4v22.2h-5.1V145.6z"/>
<path class="st4" d="M598.3,144.7c-0.6,0-1.2,0-2.1,0.1c-4.7,0.4-6.8,2.7-7.4,5.3h0.1c1.1-1.1,2.7-1.8,4.8-1.8c3.8,0,7,2.6,7,7.2
	c0,4.4-3.4,8-8.3,8c-6,0-9-4.4-9-9.7c0-4.2,1.6-7.7,4-9.9c2.2-2,5.2-3.1,8.7-3.3c1-0.1,1.6-0.1,2.1,0L598.3,144.7z M595.3,155.8
	c0-2.1-1.1-3.8-3.4-3.8c-1.4,0-2.6,0.8-3.1,2c-0.2,0.3-0.2,0.7-0.2,1.3c0.1,2.3,1.3,4.5,3.7,4.5C594.2,159.7,595.3,158,595.3,155.8
	z"/>
<path class="st4" d="M503.6,111.4L503.6,111.4l-4.4,2l-0.9-3.9l6-2.7h4.4V129h-5.1V111.4z"/>
<path class="st4" d="M528.9,106.8v3.3l-9.3,18.9H514l9.3-17.8v-0.1H513v-4.3H528.9z"/>
<path class="st4" d="M427.5,73.2L427.5,73.2l-4.4,2l-0.9-3.9l6-2.7h4.4v22.2h-5.1V73.2z"/>
<path class="st4" d="M436.2,85c0-2.7,1.6-4.5,4-5.6l0-0.1c-2.2-1.1-3.3-2.9-3.3-4.9c0-3.8,3.4-6.2,8-6.2c5.3,0,7.5,3,7.5,5.7
	c0,1.9-1.1,3.8-3.3,4.9v0.1c2.2,0.8,4.2,2.7,4.2,5.5c0,4-3.4,6.7-8.7,6.7C438.8,91.2,436.2,88,436.2,85z M447.9,84.8
	c0-1.9-1.5-3.1-3.6-3.6c-1.7,0.5-2.7,1.7-2.7,3.3c0,1.6,1.2,3.1,3.2,3.1C446.7,87.6,447.9,86.4,447.9,84.8z M441.9,74.3
	c0,1.5,1.4,2.5,3.2,3c1.2-0.3,2.3-1.4,2.3-2.8c0-1.4-0.8-2.8-2.8-2.8C442.9,71.7,441.9,72.9,441.9,74.3z"/>
<path class="st4" d="M247.8,80L247.8,80l-4.4,2l-0.9-3.9l6-2.7h4.4v22.2h-5.1V80z"/>
<path class="st4" d="M258.5,93.8c0.7,0.1,1.3,0.1,2.3,0c1.6-0.1,3.2-0.5,4.5-1.4c1.5-1,2.5-2.4,2.8-4.1l-0.1,0
	c-1,1-2.5,1.6-4.5,1.6c-3.8,0-7-2.6-7-6.9c0-4.3,3.5-8,8.5-8c5.8,0,8.6,4.4,8.6,9.5c0,4.6-1.5,8-4,10.2c-2.2,1.9-5.1,3-8.7,3.1
	c-0.9,0.1-1.8,0-2.4,0V93.8z M261.7,82.6c0,1.9,1.1,3.6,3.2,3.6c1.5,0,2.5-0.7,3-1.4c0.2-0.3,0.2-0.7,0.2-1.3
	c0-2.4-0.9-4.7-3.3-4.7C263,78.8,261.7,80.3,261.7,82.6z"/>
<path class="st4" d="M167.9,136v-3.1l2.9-2.6c4.9-4.4,7.4-6.8,7.4-9.4c0-1.8-1.1-3.2-3.7-3.2c-1.9,0-3.6,1-4.8,1.8l-1.5-3.7
	c1.7-1.3,4.3-2.3,7.4-2.3c5.1,0,7.9,2.9,7.9,7c0,3.7-2.7,6.7-6,9.6l-2.1,1.7v0.1h8.6v4.3H167.9z"/>
<path class="st4" d="M201.6,124.9c0,6.8-2.8,11.6-8.6,11.6c-5.8,0-8.4-5.1-8.5-11.4c0-6.4,2.8-11.5,8.6-11.5
	C199.2,113.5,201.6,118.8,201.6,124.9z M189.8,125c0,5.1,1.2,7.5,3.3,7.5c2.1,0,3.2-2.5,3.2-7.6c0-4.9-1.1-7.5-3.2-7.5
	C191.1,117.4,189.8,119.8,189.8,125z"/>
<path class="st4" d="M82.3,181.2V178l2.9-2.6c4.9-4.4,7.4-6.8,7.4-9.4c0-1.8-1.1-3.2-3.7-3.2c-1.9,0-3.6,1-4.8,1.8l-1.5-3.7
	c1.7-1.3,4.3-2.3,7.4-2.3c5.1,0,7.9,2.9,7.9,7c0,3.7-2.7,6.7-6,9.6l-2.1,1.7v0.1h8.6v4.3H82.3z"/>
<path class="st4" d="M104.8,163.6L104.8,163.6l-4.4,2l-0.9-3.9l6-2.7h4.4v22.2h-5.1V163.6z"/>
<path class="st4" d="M335.9,296.1v-3.1l2.9-2.6c4.9-4.4,7.4-6.8,7.4-9.4c0-1.8-1.1-3.2-3.7-3.2c-1.9,0-3.6,1-4.8,1.8l-1.5-3.7
	c1.7-1.3,4.3-2.3,7.4-2.3c5.1,0,7.9,2.9,7.9,7c0,3.7-2.7,6.7-6,9.6l-2.1,1.7v0.1h8.6v4.3H335.9z"/>
<path class="st4" d="M352.6,296.1v-3.1l2.9-2.6c4.9-4.4,7.4-6.8,7.4-9.4c0-1.8-1.1-3.2-3.7-3.2c-1.9,0-3.6,1-4.8,1.8l-1.5-3.7
	c1.7-1.3,4.3-2.3,7.4-2.3c5.1,0,7.9,2.9,7.9,7c0,3.7-2.7,6.7-6,9.6l-2.1,1.7v0.1h8.6v4.3H352.6z"/>
</svg>
